<svg viewBox="-11.2 0 165.24 165.24" xmlns="http://www.w3.org/2000/svg" fill="#faebd7" stroke="#faebd7"><g id="SVGRepo_bgCarrier" stroke-width="0"></g><g id="SVGRepo_tracerCarrier" stroke-linecap="round" stroke-linejoin="round"></g><g id="SVGRepo_iconCarrier"> <defs> <style>.cls-1{fill:#ffffff;}</style> </defs> <g id="Layer_2" data-name="Layer 2"> <g id="Layer_1-2" data-name="Layer 1"> <path d="M48,42.22c4.74-2.46,9-1.73,13.37,1.68,4.92,3.87,10.19,7.31,15.8,11.28l12.07-12c6.27-6.25,12.52-12.54,18.83-18.77C114,18.6,120,12.83,125.92,7c1-1,2-2,3-3,4.29-4.22,7.09-6.48,13.77.34.53,3.11-.93,6-2.39,8.68-6.8,12.56-13.29,25.27-21,37.37-8.26,13-15.59,26.59-23,40.11a129.89,129.89,0,0,0-8,18c-1,2.63-2.68,3.36-5,4.32-6.57-2.62-8-10.91-14.63-14.25-1.25,1.34-2.41,2.52-3.48,3.79-8.12,9.6-16.09,19.33-24.36,28.8C32.08,141.23,23.66,151.73,13.84,161c-2.16,2-4.35,3.66-7.28,4.14-4.94.82-7.83-2.45-6-7.18,3-7.73,6.07-15.44,9.51-23,5.82-12.75,12.26-25.21,17.86-38.05,4.57-10.47,8.39-21.27,12.35-32C42.94,57.69,45.27,50.35,48,42.22ZM21,134.54l1.25,1.22c2.41-2.37,5-4.59,7.2-7.15,10.55-12.42,21-24.93,31.48-37.39a36.65,36.65,0,0,1,3.5-3.76,4.61,4.61,0,0,1,6.27-.16C71.57,88,72.13,89,73,89.79c2.92,2.63,5.47,5.73,9.4,7.68,7.76-16.62,17-32.08,26.47-47.38,3.92-6.3,7.57-12.77,11.23-19.22.52-.94,2-2.08.23-3.66a42,42,0,0,0-4.74,3.62c-9.49,9.5-19,19-28.31,28.67-2.62,2.73-5.21,5.23-9.08,6.3C69.81,62.92,65.19,54,56,51.53A608.74,608.74,0,0,1,21,134.54Z"></path>  </g> </g> </g></svg>
